<svg id="Layer_1" data-name="Layer 1" xmlns="http://www.w3.org/2000/svg" viewBox="0 0 540.02 540.02"><defs><style>.cls-1{fill:#f58220;}.cls-2{fill:#fff;}</style></defs><polygon class="cls-1" points="0 144.11 144.1 540.02 540.01 395.92 395.92 0 0 144.11"/><path class="cls-2" d="M245.31,140.51c-43.31,16.08-77.48,47.6-96.31,89a167.21,167.21,0,0,0-15.3,69.81,169.19,169.19,0,0,0,10.81,59A167.56,167.56,0,0,0,359.89,459a167.82,167.82,0,0,0,95.6-87.39c19.06-41.18,20.89-87.46,5-130.56-31.21-86.42-127.8-131.71-215.22-100.58m6.61,267.33a115.51,115.51,0,0,1-60.28-66.38l-.22-.41a117.88,117.88,0,0,1,3.09-90.7,119.49,119.49,0,0,1,67.9-62.83c61.29-21.71,129.17,9.92,151,70.78,11.3,30.63,10.08,63.29-3.39,92.23a118.93,118.93,0,0,1-158.14,57.31M144.55,358.51l0-.17-.12-.17Z" transform="translate(-29.99 -29.99)"/></svg>